<svg width="27" height="27" viewBox="0 0 27 27" fill="none" xmlns="http://www.w3.org/2000/svg">
<path fill-rule="evenodd" clip-rule="evenodd" d="M23.9689 1C24.5073 1 25.0236 1.21429 25.4038 1.59556C25.7854 1.97518 26 2.49127 26 3.02957C26 3.56786 25.7854 4.08395 25.4038 4.46357L18.684 11.1621L19.0569 11.5526C19.1283 11.6235 19.1696 11.7194 19.172 11.82C19.1716 11.9234 19.1302 12.0224 19.0569 12.0953L16.351 14.7876C17.043 17.0227 16.4419 19.4572 14.7891 21.1133C12.6787 23.2218 9.37343 23.7821 6.46645 23.7821C4.84625 23.772 3.23005 23.6198 1.63645 23.3272C1.50771 23.304 1.39918 23.2178 1.34736 23.0976C1.29554 22.9775 1.30733 22.8394 1.37875 22.7298C1.55351 22.4567 1.70752 22.1708 1.83949 21.8747C1.1679 21.656 1 21.1445 1 20.8575C1.00411 20.7438 1.05758 20.6376 1.14642 20.5666L2.66922 19.3503C2.72388 19.1375 2.77855 18.9247 2.83517 18.7099C3.40329 16.5076 4.04755 14.0125 5.871 12.189C7.52911 10.5356 9.96551 9.93459 12.2023 10.6272L14.8946 7.93681C14.9678 7.86349 15.0672 7.82229 15.1708 7.82229C15.2744 7.82229 15.3738 7.86349 15.4471 7.93681L15.8199 8.30971L22.5339 1.59556C22.9141 1.21429 23.4304 1 23.9689 1ZM13.2547 11.9645C11.071 10.6107 8.24353 10.9339 6.42161 12.7454C5.04523 14.1199 4.40292 15.9141 3.89728 17.7395C5.22289 16.1035 7.50514 13.6884 9.90842 12.8235C11.0018 12.4574 12.1201 12.1703 13.2547 11.9645ZM14.2444 12.7455C14.5401 13.0367 14.802 13.3602 15.0254 13.71C13.7388 13.8447 10.1641 14.325 6.80615 15.7853C7.83306 14.8404 9.00445 13.9814 10.1758 13.5577C11.4567 13.1376 12.7689 12.8197 14.1 12.6069C14.1488 12.6518 14.1976 12.6967 14.2444 12.7455ZM2.66531 21.9527C2.55988 22.2026 2.45055 22.435 2.33537 22.6536C5.25406 23.128 11.1871 23.6161 14.2444 20.5607C15.8466 18.9572 16.3078 16.5382 15.408 14.4576C14.4514 14.5455 9.06496 15.1312 5.10373 17.5228C4.57661 18.13 4.1432 18.6806 3.83669 19.0847C4.79169 18.9759 5.7377 18.7991 6.66753 18.5556C8.01852 18.1652 8.64717 17.5795 8.64717 17.5795C8.7222 17.5079 8.82261 17.4692 8.92625 17.4717C9.02989 17.4743 9.12826 17.518 9.19967 17.5931C9.34581 17.7476 9.34147 17.9906 9.18991 18.1398C9.16062 18.1691 8.44998 18.8485 6.88814 19.3014C5.56643 19.69 3.65903 19.8989 3.16705 19.9477L1.84729 21.0058C2.00209 21.1255 2.19241 21.1901 2.38808 21.1894C2.76878 21.1601 6.63434 20.8536 8.79554 20.3128C10.8392 19.8014 12.9528 17.5493 13.2013 17.2845C13.2156 17.2693 13.2237 17.2607 13.2253 17.2593C13.3181 17.1546 13.4596 17.1075 13.5966 17.1355C13.7336 17.1635 13.8452 17.2625 13.8895 17.3951C13.9337 17.5278 13.9038 17.674 13.811 17.7786C13.7134 17.8879 11.3921 20.4709 8.99272 21.0703C6.96037 21.5759 3.60046 21.8766 2.66531 21.9527ZM16.0561 13.9891C15.427 12.6435 14.3448 11.562 12.9988 10.9337L15.1718 8.76459L17.3583 10.9493L17.8542 11.4452L18.2271 11.8181L16.0561 13.9891ZM18.1315 10.6173L24.8415 3.91101H24.8435C25.1574 3.59713 25.2799 3.13964 25.1651 2.71087C25.0502 2.2821 24.7153 1.9472 24.2865 1.83231C23.8578 1.71742 23.4003 1.84001 23.0864 2.15389L16.3744 8.86023L18.1315 10.6173Z" fill="black"/>
<path d="M25.4038 1.59556L25.2622 1.73678L25.2628 1.73736L25.4038 1.59556ZM25.4038 4.46357L25.2628 4.32178L25.2626 4.32193L25.4038 4.46357ZM18.684 11.1621L18.5428 11.0205L18.4041 11.1587L18.5393 11.3002L18.684 11.1621ZM19.0569 11.5526L18.9122 11.6907L18.9159 11.6945L19.0569 11.5526ZM19.172 11.82L19.3721 11.8209L19.372 11.8151L19.172 11.82ZM19.0569 12.0953L18.9159 11.9535L18.9158 11.9536L19.0569 12.0953ZM16.351 14.7876L16.2099 14.6458L16.1241 14.7312L16.1599 14.8468L16.351 14.7876ZM14.7891 21.1133L14.9305 21.2547L14.9307 21.2545L14.7891 21.1133ZM6.46645 23.7821L6.46521 23.9821H6.46645V23.7821ZM1.63645 23.3272L1.67257 23.1305L1.67202 23.1304L1.63645 23.3272ZM1.34736 23.0976L1.531 23.0184L1.531 23.0184L1.34736 23.0976ZM1.37875 22.7298L1.54632 22.839L1.54721 22.8376L1.37875 22.7298ZM1.83949 21.8747L2.02218 21.9561L2.11255 21.7532L1.90141 21.6845L1.83949 21.8747ZM1 20.8575L0.8 20.8503V20.8575H1ZM1.14642 20.5666L1.0216 20.4103L1.02155 20.4104L1.14642 20.5666ZM2.66922 19.3503L2.79404 19.5065L2.84629 19.4648L2.86293 19.4L2.66922 19.3503ZM2.83517 18.7099L3.02856 18.7609L3.02883 18.7599L2.83517 18.7099ZM5.871 12.189L5.72978 12.0474L5.72958 12.0476L5.871 12.189ZM12.2023 10.6272L12.1432 10.8182L12.2584 10.8539L12.3437 10.7686L12.2023 10.6272ZM14.8946 7.93681L15.0359 8.07828L15.0361 8.07815L14.8946 7.93681ZM15.4471 7.93681L15.3056 8.07815L15.3056 8.07823L15.4471 7.93681ZM15.8199 8.30971L15.6785 8.45113L15.8199 8.59256L15.9614 8.45113L15.8199 8.30971ZM22.5339 1.59556L22.6753 1.73698L22.6755 1.73678L22.5339 1.59556ZM6.42161 12.7454L6.28059 12.6036L6.28028 12.6039L6.42161 12.7454ZM13.2547 11.9645L13.2904 12.1613L13.802 12.0684L13.3601 11.7945L13.2547 11.9645ZM3.89728 17.7395L3.70454 17.6861L4.05267 17.8654L3.89728 17.7395ZM9.90842 12.8235L9.8449 12.6338L9.8407 12.6353L9.90842 12.8235ZM15.0254 13.71L15.0462 13.9089L15.3682 13.8752L15.1939 13.6023L15.0254 13.71ZM14.2444 12.7455L14.1001 12.8841L14.1041 12.888L14.2444 12.7455ZM6.80615 15.7853L6.67073 15.6382L6.88591 15.9687L6.80615 15.7853ZM10.1758 13.5577L10.1135 13.3676L10.1078 13.3696L10.1758 13.5577ZM14.1 12.6069L14.2354 12.4597L14.1641 12.3941L14.0684 12.4094L14.1 12.6069ZM2.33537 22.6536L2.15842 22.5604L2.02882 22.8064L2.30328 22.851L2.33537 22.6536ZM2.66531 21.9527L2.64907 21.7534L2.52818 21.7632L2.48103 21.875L2.66531 21.9527ZM14.2444 20.5607L14.3858 20.7022L14.3859 20.7021L14.2444 20.5607ZM15.408 14.4576L15.5916 14.3782L15.534 14.2452L15.3897 14.2585L15.408 14.4576ZM5.10373 17.5228L5.00036 17.3516L4.97337 17.3679L4.95271 17.3917L5.10373 17.5228ZM3.83669 19.0847L3.67734 18.9639L3.39482 19.3364L3.85933 19.2834L3.83669 19.0847ZM6.66753 18.5556L6.71821 18.7492L6.72306 18.7478L6.66753 18.5556ZM8.64717 17.5795L8.78351 17.7258L8.78517 17.7242L8.64717 17.5795ZM8.92625 17.4717L8.9312 17.2718L8.92625 17.4717ZM9.19967 17.5931L9.34496 17.4557L9.34467 17.4554L9.19967 17.5931ZM9.18991 18.1398L9.04962 17.9972L9.04849 17.9984L9.18991 18.1398ZM6.88814 19.3014L6.83243 19.1093L6.83174 19.1096L6.88814 19.3014ZM3.16705 19.9477L3.1473 19.7486L3.08824 19.7545L3.04194 19.7916L3.16705 19.9477ZM1.84729 21.0058L1.72218 20.8498L1.52402 21.0087L1.72495 21.1641L1.84729 21.0058ZM2.38808 21.1894L2.38885 21.3894L2.39615 21.3893L2.40342 21.3888L2.38808 21.1894ZM8.79554 20.3128L8.74699 20.1187L8.79554 20.3128ZM13.2013 17.2845L13.0555 17.1477L13.0555 17.1477L13.2013 17.2845ZM13.2253 17.2593L13.3563 17.4104L13.3662 17.4018L13.375 17.392L13.2253 17.2593ZM13.5966 17.1355L13.6367 16.9395H13.6367L13.5966 17.1355ZM13.8895 17.3951L14.0792 17.3319H14.0792L13.8895 17.3951ZM13.811 17.7786L13.9602 17.9118L13.9607 17.9113L13.811 17.7786ZM8.99272 21.0703L9.04101 21.2644L9.04119 21.2643L8.99272 21.0703ZM12.9988 10.9337L12.8575 10.7921L12.6553 10.994L12.9142 11.1149L12.9988 10.9337ZM16.0561 13.9891L15.875 14.0738L15.9958 14.3323L16.1976 14.1305L16.0561 13.9891ZM15.1718 8.76459L15.3131 8.6231L15.1718 8.48193L15.0305 8.62304L15.1718 8.76459ZM17.3583 10.9493L17.4998 10.8079L17.4997 10.8078L17.3583 10.9493ZM17.8542 11.4452L17.9956 11.3038L17.8542 11.4452ZM18.2271 11.8181L18.3685 11.9595L18.51 11.8181L18.3685 11.6767L18.2271 11.8181ZM24.8415 3.91101V3.71101H24.7587L24.7002 3.76955L24.8415 3.91101ZM18.1315 10.6173L17.99 10.7588L18.1314 10.9002L18.2728 10.7588L18.1315 10.6173ZM24.8435 3.91101V4.11101H24.9263L24.9849 4.05243L24.8435 3.91101ZM25.1651 2.71087L24.9719 2.76263V2.76263L25.1651 2.71087ZM24.2865 1.83231L24.3383 1.63913V1.63913L24.2865 1.83231ZM23.0864 2.15389L23.2278 2.29537L23.2278 2.29531L23.0864 2.15389ZM16.3744 8.86023L16.233 8.71875L16.0915 8.86017L16.233 9.00165L16.3744 8.86023ZM25.4038 1.59556L25.5454 1.45434C25.1277 1.03544 24.5604 0.8 23.9689 0.8V1V1.2C24.4542 1.2 24.9195 1.39314 25.2622 1.73678L25.4038 1.59556ZM26 3.02957H26.2C26.2 2.43805 25.9642 1.87093 25.5449 1.45377L25.4038 1.59556L25.2628 1.73736C25.6066 2.07944 25.8 2.5445 25.8 3.02957H26ZM25.4038 4.46357L25.5449 4.60537C25.9642 4.18821 26.2 3.62109 26.2 3.02957H26H25.8C25.8 3.51463 25.6066 3.97969 25.2628 4.32178L25.4038 4.46357ZM18.684 11.1621L18.8252 11.3037L25.545 4.60522L25.4038 4.46357L25.2626 4.32193L18.5428 11.0205L18.684 11.1621ZM19.0569 11.5526L19.2015 11.4144L18.8286 11.024L18.684 11.1621L18.5393 11.3002L18.9122 11.6907L19.0569 11.5526ZM19.172 11.82L19.372 11.8151C19.3683 11.6629 19.3059 11.518 19.1978 11.4107L19.0569 11.5526L18.9159 11.6945C18.9508 11.7291 18.9709 11.7758 18.9721 11.8249L19.172 11.82ZM19.0569 12.0953L19.1979 12.2372C19.3087 12.1269 19.3714 11.9772 19.372 11.8209L19.172 11.82L18.972 11.8192C18.9718 11.8696 18.9516 11.9179 18.9159 11.9535L19.0569 12.0953ZM16.351 14.7876L16.492 14.9294L19.1979 12.2371L19.0569 12.0953L18.9158 11.9536L16.2099 14.6458L16.351 14.7876ZM14.7891 21.1133L14.9307 21.2545C16.6358 19.546 17.2559 17.0343 16.542 14.7285L16.351 14.7876L16.1599 14.8468C16.83 17.011 16.2479 19.3684 14.6476 20.972L14.7891 21.1133ZM6.46645 23.7821V23.9821C9.38629 23.9821 12.7614 23.4219 14.9305 21.2547L14.7891 21.1133L14.6478 20.9718C12.596 23.0217 9.36057 23.5821 6.46645 23.5821V23.7821ZM1.63645 23.3272L1.60033 23.5239C3.20544 23.8186 4.8333 23.972 6.46521 23.9821L6.46645 23.7821L6.4677 23.5821C4.85919 23.5721 3.25466 23.421 1.67257 23.1305L1.63645 23.3272ZM1.34736 23.0976L1.16372 23.1769C1.24208 23.3585 1.4062 23.4889 1.60088 23.524L1.63645 23.3272L1.67202 23.1304C1.60922 23.1191 1.55628 23.077 1.531 23.0184L1.34736 23.0976ZM1.37875 22.7298L1.21118 22.6206C1.10318 22.7864 1.08536 22.9952 1.16372 23.1769L1.34736 23.0976L1.531 23.0184C1.50573 22.9598 1.51147 22.8925 1.54631 22.839L1.37875 22.7298ZM1.83949 21.8747L1.65681 21.7933C1.52891 22.0803 1.37965 22.3573 1.21028 22.622L1.37875 22.7298L1.54721 22.8376C1.72736 22.5561 1.88613 22.2614 2.02218 21.9561L1.83949 21.8747ZM1 20.8575H0.8C0.8 21.2157 1.00987 21.8149 1.77757 22.0648L1.83949 21.8747L1.90141 21.6845C1.32592 21.4971 1.2 21.0733 1.2 20.8575H1ZM1.14642 20.5666L1.02155 20.4104C0.887199 20.5178 0.806348 20.6784 0.800131 20.8503L1 20.8575L1.19987 20.8647C1.20187 20.8093 1.22796 20.7575 1.27129 20.7228L1.14642 20.5666ZM2.66922 19.3503L2.5444 19.194L1.0216 20.4103L1.14642 20.5666L1.27124 20.7229L2.79404 19.5065L2.66922 19.3503ZM2.83517 18.7099L2.64177 18.6589C2.58497 18.8744 2.53015 19.0878 2.47551 19.3005L2.66922 19.3503L2.86293 19.4C2.91762 19.1871 2.97213 18.9749 3.02856 18.7609L2.83517 18.7099ZM5.871 12.189L5.72958 12.0476C3.86142 13.9158 3.20733 16.4666 2.64151 18.6599L2.83517 18.7099L3.02883 18.7599C3.59925 16.5487 4.23368 14.1093 6.01242 12.3305L5.871 12.189ZM12.2023 10.6272L12.2615 10.4361C9.95387 9.72162 7.44037 10.3417 5.72978 12.0474L5.871 12.189L6.01222 12.3307C7.61786 10.7296 9.97715 10.1476 12.1432 10.8182L12.2023 10.6272ZM14.8946 7.93681L14.7532 7.79534L12.061 10.4857L12.2023 10.6272L12.3437 10.7686L15.0359 8.07828L14.8946 7.93681ZM15.1708 7.82229V7.62229C15.0141 7.62229 14.8638 7.68459 14.753 7.79547L14.8946 7.93681L15.0361 8.07815C15.0718 8.04239 15.1203 8.02229 15.1708 8.02229V7.82229ZM15.4471 7.93681L15.5886 7.79547C15.4778 7.68459 15.3275 7.62229 15.1708 7.62229V7.82229V8.02229C15.2213 8.02229 15.2698 8.04239 15.3056 8.07815L15.4471 7.93681ZM15.8199 8.30971L15.9614 8.16829L15.5885 7.79539L15.4471 7.93681L15.3056 8.07823L15.6785 8.45113L15.8199 8.30971ZM22.5339 1.59556L22.3925 1.45414L15.6785 8.16829L15.8199 8.30971L15.9614 8.45113L22.6753 1.73698L22.5339 1.59556ZM23.9689 1V0.8C23.3773 0.8 22.81 1.03544 22.3923 1.45434L22.5339 1.59556L22.6755 1.73678C23.0182 1.39314 23.4836 1.2 23.9689 1.2V1ZM6.42161 12.7454L6.56262 12.8872C8.31885 11.141 11.0444 10.8295 13.1493 12.1345L13.2547 11.9645L13.3601 11.7945C11.0977 10.3919 8.16821 10.7267 6.28059 12.6036L6.42161 12.7454ZM3.89728 17.7395L4.09002 17.7929C4.59435 15.9722 5.22579 14.2222 6.56293 12.8869L6.42161 12.7454L6.28028 12.6039C4.86468 14.0175 4.2115 15.8559 3.70454 17.6861L3.89728 17.7395ZM9.90842 12.8235L9.8407 12.6353C8.60542 13.0799 7.41207 13.918 6.36626 14.8425C5.31875 15.7684 4.40913 16.7901 3.74188 17.6136L3.89728 17.7395L4.05267 17.8654C4.71104 17.0529 5.60535 16.049 6.63118 15.1422C7.65873 14.2339 8.80814 13.432 9.97615 13.0117L9.90842 12.8235ZM13.2547 11.9645L13.219 11.7677C12.075 11.9752 10.9474 12.2647 9.84492 12.6339L9.90842 12.8235L9.97193 13.0132C11.0562 12.6501 12.1652 12.3654 13.2904 12.1613L13.2547 11.9645ZM15.0254 13.71L15.1939 13.6023C14.9625 13.24 14.6911 12.9048 14.3848 12.603L14.2444 12.7455L14.1041 12.888C14.389 13.1687 14.6415 13.4805 14.8568 13.8176L15.0254 13.71ZM6.80615 15.7853L6.88591 15.9687C10.2158 14.5206 13.7665 14.0429 15.0462 13.9089L15.0254 13.71L15.0045 13.5111C13.7111 13.6465 10.1124 14.1294 6.72639 15.6019L6.80615 15.7853ZM10.1758 13.5577L10.1078 13.3696C8.89998 13.8065 7.70554 14.686 6.67073 15.6382L6.80615 15.7853L6.94158 15.9325C7.96059 14.9948 9.10892 14.1563 10.2439 13.7458L10.1758 13.5577ZM14.1 12.6069L14.0684 12.4094C12.7269 12.6239 11.4044 12.9443 10.1135 13.3677L10.1758 13.5577L10.2382 13.7477C11.509 13.331 12.8109 13.0155 14.1315 12.8044L14.1 12.6069ZM14.2444 12.7455L14.3887 12.607C14.3369 12.553 14.2835 12.504 14.2354 12.4597L14.1 12.6069L13.9645 12.7541C14.0141 12.7996 14.0583 12.8404 14.1002 12.884L14.2444 12.7455ZM2.33537 22.6536L2.51232 22.7468C2.63042 22.5226 2.74216 22.2851 2.84958 22.0305L2.66531 21.9527L2.48103 21.875C2.3776 22.1202 2.27069 22.3473 2.15842 22.5604L2.33537 22.6536ZM14.2444 20.5607L14.103 20.4192C12.6229 21.8984 10.4313 22.5328 8.22 22.7317C6.01308 22.9302 3.81853 22.6921 2.36745 22.4562L2.33537 22.6536L2.30328 22.851C3.7709 23.0896 6.00223 23.3328 8.25583 23.1301C10.5051 22.9277 12.8086 22.2784 14.3858 20.7022L14.2444 20.5607ZM15.408 14.4576L15.2244 14.537C16.0917 16.5423 15.6472 18.8739 14.1029 20.4193L14.2444 20.5607L14.3859 20.7021C16.0461 19.0406 16.524 16.534 15.5916 14.3782L15.408 14.4576ZM5.10373 17.5228L5.20711 17.6941C9.1257 15.3282 14.4709 14.7445 15.4263 14.6568L15.408 14.4576L15.3897 14.2585C14.4318 14.3465 9.00422 14.9342 5.00036 17.3516L5.10373 17.5228ZM3.83669 19.0847L3.99604 19.2056C4.3006 18.804 4.73121 18.257 5.25476 17.654L5.10373 17.5228L4.95271 17.3917C4.42202 18.003 3.9858 18.5572 3.67734 18.9639L3.83669 19.0847ZM6.66753 18.5556L6.61687 18.3622C5.69624 18.6032 4.75959 18.7783 3.81405 18.886L3.83669 19.0847L3.85933 19.2834C4.82378 19.1736 5.77916 18.995 6.71819 18.7491L6.66753 18.5556ZM8.64717 17.5795C8.51083 17.4331 8.51088 17.4331 8.51093 17.433C8.51094 17.433 8.51099 17.433 8.51101 17.433C8.51106 17.4329 8.51111 17.4329 8.51114 17.4328C8.5112 17.4328 8.51123 17.4328 8.51122 17.4328C8.5112 17.4328 8.51103 17.4329 8.5107 17.4332C8.51005 17.4338 8.50879 17.435 8.50692 17.4366C8.50317 17.44 8.49698 17.4454 8.48833 17.4527C8.47101 17.4674 8.44382 17.4896 8.40659 17.518C8.33213 17.5748 8.21748 17.656 8.06122 17.7495C7.74879 17.9366 7.26966 18.1734 6.612 18.3635L6.66753 18.5556L6.72306 18.7478C7.4164 18.5474 7.92709 18.2961 8.26672 18.0927C8.43649 17.991 8.56345 17.9014 8.64907 17.8361C8.69188 17.8035 8.72437 17.777 8.74671 17.7581C8.75788 17.7486 8.76651 17.7411 8.77264 17.7356C8.7757 17.7329 8.77813 17.7307 8.77994 17.7291C8.78085 17.7282 8.7816 17.7275 8.78219 17.727C8.78249 17.7267 8.78274 17.7265 8.78296 17.7263C8.78307 17.7262 8.78317 17.7261 8.78326 17.726C8.78331 17.726 8.78337 17.7259 8.78339 17.7259C8.78345 17.7258 8.7835 17.7258 8.64717 17.5795ZM8.92625 17.4717L8.9312 17.2718C8.77447 17.2679 8.62263 17.3265 8.50916 17.4347L8.64717 17.5795L8.78517 17.7242C8.82177 17.6893 8.87075 17.6704 8.92131 17.6717L8.92625 17.4717ZM9.19967 17.5931L9.34467 17.4554C9.23668 17.3417 9.08793 17.2757 8.9312 17.2718L8.92625 17.4717L8.92131 17.6717C8.97186 17.6729 9.01984 17.6942 9.05467 17.7309L9.19967 17.5931ZM9.18991 18.1398L9.33019 18.2823C9.55939 18.0568 9.56595 17.6893 9.34495 17.4557L9.19967 17.5931L9.05438 17.7306C9.12567 17.8059 9.12356 17.9245 9.04962 17.9972L9.18991 18.1398ZM6.88814 19.3014L6.94385 19.4935C8.54187 19.0301 9.28115 18.3314 9.33133 18.2812L9.18991 18.1398L9.04849 17.9984C9.04856 17.9983 9.03749 18.0092 9.01448 18.0294C8.9919 18.0493 8.95847 18.0777 8.91383 18.1128C8.82458 18.183 8.69066 18.2803 8.50944 18.3911C8.14712 18.6125 7.59525 18.8881 6.83243 19.1093L6.88814 19.3014ZM3.16705 19.9477L3.18679 20.1467C3.67764 20.098 5.60255 19.8878 6.94454 19.4933L6.88814 19.3014L6.83174 19.1096C5.53031 19.4921 3.64042 19.6997 3.1473 19.7486L3.16705 19.9477ZM1.84729 21.0058L1.9724 21.1619L3.29216 20.1037L3.16705 19.9477L3.04194 19.7916L1.72218 20.8498L1.84729 21.0058ZM2.38808 21.1894L2.3873 20.9894C2.23618 20.9899 2.08918 20.9401 1.96963 20.8476L1.84729 21.0058L1.72495 21.1641C1.91499 21.311 2.14864 21.3903 2.38885 21.3894L2.38808 21.1894ZM8.79554 20.3128L8.74699 20.1187C6.60541 20.6546 2.75798 20.9603 2.37274 20.99L2.38808 21.1894L2.40342 21.3888C2.77957 21.3598 6.66327 21.0525 8.84409 20.5068L8.79554 20.3128ZM13.2013 17.2845L13.0555 17.1477C12.9333 17.2779 12.3501 17.8993 11.5457 18.5508C10.7369 19.2058 9.72539 19.8739 8.74699 20.1187L8.79554 20.3128L8.84409 20.5068C9.9094 20.2402 10.9765 19.5266 11.7975 18.8616C12.623 18.193 13.2208 17.556 13.3471 17.4214L13.2013 17.2845ZM13.2253 17.2593L13.0944 17.1081C13.0888 17.113 13.0845 17.1173 13.0837 17.118C13.082 17.1197 13.0806 17.1212 13.0795 17.1222C13.0774 17.1244 13.0751 17.1269 13.0729 17.1292C13.0685 17.1338 13.0625 17.1402 13.0555 17.1477L13.2013 17.2845L13.3471 17.4214C13.3544 17.4136 13.3597 17.4081 13.3633 17.4043C13.3651 17.4023 13.366 17.4014 13.3663 17.4011C13.3665 17.4009 13.366 17.4014 13.3651 17.4023C13.3647 17.4027 13.3638 17.4035 13.3627 17.4046C13.3617 17.4055 13.3594 17.4077 13.3563 17.4104L13.2253 17.2593ZM13.5966 17.1355L13.6367 16.9395C13.4297 16.8972 13.2158 16.9685 13.0757 17.1266L13.2253 17.2593L13.375 17.392C13.4203 17.3408 13.4895 17.3177 13.5565 17.3314L13.5966 17.1355ZM13.8895 17.3951L14.0792 17.3319C14.0124 17.1315 13.8437 16.9819 13.6367 16.9395L13.5966 17.1355L13.5565 17.3314C13.6235 17.3451 13.6781 17.3935 13.6997 17.4584L13.8895 17.3951ZM13.811 17.7786L13.9607 17.9113C14.1008 17.7532 14.146 17.5323 14.0792 17.3319L13.8895 17.3951L13.6997 17.4584C13.7213 17.5233 13.7067 17.5947 13.6614 17.6459L13.811 17.7786ZM8.99272 21.0703L9.04119 21.2643C10.2847 20.9537 11.4927 20.1352 12.3921 19.3951C13.2955 18.6518 13.9078 17.9704 13.9602 17.9118L13.811 17.7786L13.6618 17.6454C13.6166 17.6961 13.0195 18.3609 12.138 19.0862C11.2525 19.8148 10.1002 20.5875 8.94425 20.8762L8.99272 21.0703ZM2.66531 21.9527L2.68154 22.1521C3.61381 22.0762 6.99017 21.7746 9.04101 21.2644L8.99272 21.0703L8.94444 20.8762C6.93058 21.3772 3.58711 21.677 2.64907 21.7534L2.66531 21.9527ZM12.9988 10.9337L12.9142 11.1149C14.2177 11.7233 15.2657 12.7707 15.875 14.0738L16.0561 13.9891L16.2373 13.9044C15.5883 12.5163 14.4719 11.4006 13.0834 10.7524L12.9988 10.9337ZM15.1718 8.76459L15.0305 8.62304L12.8575 10.7921L12.9988 10.9337L13.1401 11.0752L15.3131 8.90613L15.1718 8.76459ZM17.3583 10.9493L17.4997 10.8078L15.3131 8.6231L15.1718 8.76459L15.0304 8.90607L17.217 11.0908L17.3583 10.9493ZM17.8542 11.4452L17.9956 11.3038L17.4998 10.8079L17.3583 10.9493L17.2169 11.0907L17.7128 11.5866L17.8542 11.4452ZM18.2271 11.8181L18.3685 11.6767L17.9956 11.3038L17.8542 11.4452L17.7128 11.5866L18.0857 11.9595L18.2271 11.8181ZM16.0561 13.9891L16.1976 14.1305L18.3685 11.9595L18.2271 11.8181L18.0857 11.6767L15.9147 13.8477L16.0561 13.9891ZM24.8415 3.91101L24.7002 3.76955L17.9901 10.4759L18.1315 10.6173L18.2728 10.7588L24.9829 4.05247L24.8415 3.91101ZM24.8435 3.91101V3.71101H24.8415V3.91101V4.11101H24.8435V3.91101ZM25.1651 2.71087L24.9719 2.76263C25.0683 3.12239 24.9654 3.50623 24.7021 3.76959L24.8435 3.91101L24.9849 4.05243C25.3493 3.68802 25.4916 3.15689 25.3582 2.65911L25.1651 2.71087ZM24.2865 1.83231L24.2348 2.0255C24.5945 2.12189 24.8755 2.40288 24.9719 2.76263L25.1651 2.71087L25.3582 2.65911C25.2249 2.16133 24.8361 1.77251 24.3383 1.63913L24.2865 1.83231ZM23.0864 2.15389L23.2278 2.29531C23.4912 2.03195 23.875 1.9291 24.2348 2.0255L24.2865 1.83231L24.3383 1.63913C23.8405 1.50574 23.3094 1.64806 22.945 2.01247L23.0864 2.15389ZM16.3744 8.86023L16.5158 9.00171L23.2278 2.29537L23.0864 2.15389L22.9451 2.01241L16.233 8.71875L16.3744 8.86023ZM18.1315 10.6173L18.2729 10.4759L16.5158 8.71881L16.3744 8.86023L16.233 9.00165L17.99 10.7588L18.1315 10.6173Z" fill="black"/>
<path d="M20.7183 20.9238H16.228C16.0123 20.9238 15.8375 21.0986 15.8375 21.3143C15.8375 21.53 16.0123 21.7048 16.228 21.7048H20.7183C21.0957 21.7048 21.4016 22.0107 21.4016 22.3881C21.4016 22.7655 21.0957 23.0714 20.7183 23.0714H18.3755C18.1599 23.0714 17.985 23.2462 17.985 23.4619C17.985 24.4323 17.1984 25.219 16.228 25.219H1.39046C1.17482 25.219 1 25.3938 1 25.6095C1 25.8251 1.17482 26 1.39046 26H16.228C17.4793 26.0004 18.5442 25.0888 18.7367 23.8524H20.7183C21.5269 23.8524 22.1825 23.1968 22.1825 22.3881C22.1825 21.5794 21.5269 20.9238 20.7183 20.9238Z" fill="black" stroke="black" stroke-width="0.4"/>
<path d="M23.6467 15.6525H23.061V14.6764C23.061 14.4607 22.8862 14.2859 22.6706 14.2859C22.4549 14.2859 22.2801 14.4607 22.2801 14.6764V15.6525H21.6944C21.4788 15.6525 21.304 15.8274 21.304 16.043C21.304 16.2587 21.4788 16.4335 21.6944 16.4335H22.2801V17.4097C22.2801 17.6253 22.4549 17.8001 22.6706 17.8001C22.8862 17.8001 23.061 17.6253 23.061 17.4097V16.4335H23.6467C23.8624 16.4335 24.0372 16.2587 24.0372 16.043C24.0372 15.8274 23.8624 15.6525 23.6467 15.6525Z" fill="black" stroke="black" stroke-width="0.4"/>
<path d="M3.53798 8.03834H4.3189V9.01452C4.3189 9.23017 4.49372 9.40499 4.70937 9.40499C4.92501 9.40499 5.09983 9.23017 5.09983 9.01452V8.03834H5.88075C6.09639 8.03834 6.27121 7.86352 6.27121 7.64787C6.27121 7.43222 6.09639 7.2574 5.88075 7.2574H5.09983V6.28122C5.09983 6.06557 4.92501 5.89075 4.70937 5.89075C4.49372 5.89075 4.3189 6.06557 4.3189 6.28122V7.2574H3.53798C3.32234 7.2574 3.14752 7.43222 3.14752 7.64787C3.14752 7.86352 3.32234 8.03834 3.53798 8.03834Z" fill="black" stroke="black" stroke-width="0.4"/>
<path d="M13.8852 3.15736H14.6661V4.13353C14.6661 4.34919 14.8409 4.524 15.0566 4.524C15.2722 4.524 15.4471 4.34919 15.4471 4.13353V3.15736H16.228C16.4436 3.15736 16.6184 2.98254 16.6184 2.76689C16.6184 2.55123 16.4436 2.37641 16.228 2.37641H15.4471V1.40024C15.4471 1.18459 15.2722 1.00977 15.0566 1.00977C14.8409 1.00977 14.6661 1.18459 14.6661 1.40024V2.37641H13.8852C13.6696 2.37641 13.4948 2.55123 13.4948 2.76689C13.4948 2.98254 13.6696 3.15736 13.8852 3.15736Z" fill="black" stroke="black" stroke-width="0.4"/>
</svg>
