<svg width="8" height="10" viewBox="0 0 8 10" fill="none" xmlns="http://www.w3.org/2000/svg">
<path d="M6.50227 5.97805C5.62877 7.04247 4.21826 7.11297 3.56671 6.4574C3.51301 6.40805 3.47363 6.34813 3.42709 6.28822C3.41993 6.30936 3.41277 6.33051 3.40919 6.35166C3.09416 7.55706 3.05836 7.82493 2.73974 8.38534C2.58581 8.6532 2.41397 8.90697 2.22065 9.14664C2.19917 9.17132 2.17769 9.21009 2.13831 9.19951C2.08819 9.18894 2.08819 9.15017 2.08103 9.1114C2.03091 8.74484 2.00227 8.37476 2.01659 8.00468C2.03091 7.55706 2.08103 7.37731 2.61087 5.20265C2.64666 5.06166 2.68246 4.90306 2.72542 4.74093C2.73258 4.70216 2.72542 4.66691 2.7111 4.63167C2.56075 4.22986 2.52853 3.82454 2.66098 3.41216C2.94738 2.51692 3.97125 2.44995 4.15024 3.18659C4.26122 3.64126 3.97125 4.23691 3.74571 5.11806C3.55955 5.84412 4.4259 6.36223 5.17053 5.83002C5.8543 5.3401 6.1228 4.16995 6.07268 3.33815C5.97244 1.6816 4.12877 1.32561 2.95812 1.8543C1.61564 2.46758 1.31134 4.10298 1.91635 4.85019C1.99511 4.94888 2.05239 5.00527 2.02733 5.10043C1.99153 5.25199 1.95573 5.40355 1.91277 5.55158C1.88413 5.66084 1.78748 5.70314 1.67292 5.65732C1.45096 5.5692 1.2648 5.43174 1.11087 5.24494C0.595352 4.62109 0.448574 3.37692 1.13234 2.32659C1.88771 1.16348 3.28748 0.691192 4.56552 0.835699C6.09416 1.00488 7.06075 2.03405 7.24332 3.20069C7.32208 3.72937 7.2648 5.04052 6.50585 5.96748L6.50227 5.97805Z" fill="white"/>
</svg>
